<?xml version="1.0" standalone="no"?><!DOCTYPE svg PUBLIC "-//W3C//DTD SVG 1.1//EN" "http://www.w3.org/Graphics/SVG/1.1/DTD/svg11.dtd"><svg t="1731927238805" class="icon" viewBox="0 0 1024 1024" version="1.1" xmlns="http://www.w3.org/2000/svg" p-id="939" xmlns:xlink="http://www.w3.org/1999/xlink" width="200" height="200"><path d="M942.373891 422.329085c-22.909873 12.989495-54.066059 23.281887-93.437558 30.877176-4.278163 0.806031-8.866338 1.30205-13.392511 1.860071v35.527353c0 2.418092-0.992038 4.712179-1.364051 7.09927 11.501438-1.519058 23.126881-2.852109 34.101298-5.115195 45.788744-9.45536 81.967122-23.405891 108.411129-41.882595v56.081136c0 14.632557-10.912416 28.211074-32.148224 40.766553-44.796706-25.389967-121.741637-37.418425-158.416034-38.813479h-85.718264c-53.04302 2.542097-187.030123 21.359814-194.81142 71.271715v37.635433c-21.235809 1.147044-42.037601 2.728104-64.296449 2.728104-71.178711 0-137.087221-5.859223-197.601525-17.484666-60.545306-11.687445-108.504132-27.467046-143.752475-47.400805-35.248342-19.933759-52.888014-41.541582-52.888015-64.885471v-86.183283c40.70455 28.397082 96.289667 49.911901 166.786353 64.389453 70.558687 14.508553 146.325573 21.79383 227.455662 21.79383s156.896976-7.285277 227.393661-21.79383c65.970513-13.609518 118.42451-33.543278 158.32303-59.274258l0.155006-37.480427c13.795525-1.953074 27.901063-3.41013 41.138566-6.138234 45.788744-9.45536 81.967122-23.436893 108.411129-41.913596v56.112137c0 15.190579-11.470437 29.265115-34.349308 42.223608z m-0.062002-126.701826c-22.878871 12.958494-54.066059 23.281887-93.406558 30.846175-6.851261 1.333051-14.44655 1.891072-21.514819 2.976113l0.031001-8.370318c-8.215313 13.888529-22.599861 27.188035-44.796706 39.743513-35.217341 19.902758-83.176168 35.744361-143.721474 47.400806-60.545306 11.625443-126.422815 17.484666-197.601526 17.484665-71.178711 0-137.087221-5.797221-197.663528-17.453664-60.545306-11.625443-108.504132-27.405044-143.752475-47.400806C64.637462 340.950985 46.99779 319.312161 46.99779 295.968272V231.082801c0-23.343889 17.639672-44.951712 52.888014-64.885471S183.092973 130.48397 243.638279 118.796524c60.576307-11.656444 126.484817-17.484666 197.663528-17.484665 7.936302 0 15.128576 0.837032 22.940874 0.961036v-17.825679c0-15.190579 11.470437-29.265115 34.38031-42.223608 22.909873-12.989495 54.066059-23.250886 93.406557-30.877176 39.402501-7.564288 82.215131-11.377433 128.468893-11.377433s89.066392 3.813145 128.40689 11.377433c39.340498 7.62629 70.527686 17.887681 93.406558 30.877176 22.909873 12.958494 34.380309 27.03303 34.380309 42.223608v42.223608c0 15.190579-11.470437 29.265115-34.380309 42.223609-22.878871 12.989495-54.066059 23.281887-93.406558 30.877175-7.409282 1.426054-15.376586 2.232085-23.250885 3.193122 6.107233 9.114347 9.889377 18.445703 9.889376 28.118071v12.989495c11.03642-1.457055 22.196845-2.697103 32.737247-4.867186 45.788744-9.486361 81.967122-23.436893 108.411129-41.913596v56.081136c0 15.190579-11.470437 29.265115-34.380309 42.254609zM441.301807 685.250098c21.824831 0 43.215646-0.620024 64.296449-1.674063v128.716902c-21.204808 1.147044-42.0066 2.759105-64.234446 2.759105-71.178711 0-137.087221-5.859223-197.663528-17.484666-60.545306-11.718446-108.504132-27.498047-143.752475-47.431806-35.248342-19.902758-52.888014-41.541582-52.888015-64.885472v-86.183282c40.70455 28.397082 96.289667 49.849899 166.786353 64.389452 70.558687 14.539554 146.325573 21.79383 227.455662 21.79383z m0 194.625413c21.824831 0 43.215646-0.620024 64.296449-1.674064v102.613908c2.201084 9.579365 8.92834 17.918682 18.3837 25.327965-26.909025 1.860071-54.066059 3.503133-82.680149 3.503133-71.178711 0-137.087221-5.797221-197.601525-17.422663-60.545306-11.687445-108.504132-27.467046-143.752475-47.400806C64.699464 924.889225 47.059792 903.250401 47.059792 879.937513v-86.183282c40.70455 28.397082 96.289667 49.787896 166.786353 64.32745 70.558687 14.508553 146.325573 21.79383 227.455662 21.79383z m123.415701-308.740759c18.941721-10.695407 44.672701-19.189731 77.161939-25.451969a561.648391 561.648391 0 0 1 106.08604-9.393358c38.193455 0 73.565802 3.131119 106.055039 9.393358 32.489237 6.262239 58.220217 14.756562 77.130938 25.451969 18.91072 10.695407 28.397082 22.32085 28.397081 34.845327v34.814326c0 12.524477-9.486361 24.14992-28.397081 34.845327-18.91072 10.695407-44.6417 19.189731-77.130938 25.45197a563.632466 563.632466 0 0 1-106.055039 9.393357c-38.193455 0-73.565802-3.131119-106.08604-9.362356-32.489237-6.262239-58.220217-14.725561-77.161939-25.451969-18.91072-10.695407-28.36608-22.32085-28.366081-34.845328v-34.845327c0-12.524477 9.45536-24.14992 28.366081-34.845327z m183.247979 174.195635c43.525658 0 84.199207-3.906149 122.020647-11.718447 37.852442-7.812298 67.706579-19.313736 89.562411-34.566316v46.284763c0 12.524477-9.486361 24.14992-28.397081 34.845327-18.91072 10.695407-44.6417 19.189731-77.130938 25.451969a563.632466 563.632466 0 0 1-106.055039 9.393358c-38.193455 0-73.565802-3.16212-106.055039-9.393358-32.489237-6.29324-58.220217-14.756562-77.161939-25.451969-18.91072-10.695407-28.36608-22.32085-28.36608-34.845327v-46.284763c21.824831 15.252581 51.678968 26.78502 89.500408 34.566316 37.852442 7.812298 78.525991 11.718446 122.08265 11.718447z m0 104.535981c43.525658 0 84.199207-3.906149 122.051648-11.718446 37.852442-7.812298 67.706579-19.313736 89.562411-34.566317v46.284763c0 12.524477-9.486361 24.14992-28.397081 34.845327-18.91072 10.695407-44.6417 19.189731-77.130938 25.451969a561.059368 561.059368 0 0 1-106.055039 9.393358 561.431383 561.431383 0 0 1-106.08604-9.393358c-32.489237-6.29324-58.220217-14.756562-77.161939-25.451969-18.91072-10.695407-28.36608-22.32085-28.36608-34.845327v-46.284763c21.824831 15.252581 51.678968 26.754019 89.500408 34.566317 37.852442 7.812298 78.525991 11.718446 122.08265 11.718446z m0 104.50498c43.525658 0 84.199207-3.906149 122.020647-11.718446 37.852442-7.812298 67.706579-19.313736 89.562411-34.566317v46.284763c0 12.524477-9.486361 24.14992-28.397081 34.845327-18.91072 10.695407-44.6417 19.15873-77.130938 25.45197a561.059368 561.059368 0 0 1-106.055039 9.393357c-38.193455 0-73.565802-3.100118-106.055039-9.362356-32.489237-6.29324-58.220217-14.756562-77.161939-25.45197-18.91072-10.695407-28.36608-22.32085-28.36608-34.845327v-46.284762c21.824831 15.252581 51.678968 26.723018 89.500408 34.535315 37.852442 7.812298 78.525991 11.718446 122.08265 11.718446z" fill="#D3D3D3" p-id="940"></path></svg>