<?xml version="1.0" standalone="no"?><!DOCTYPE svg PUBLIC "-//W3C//DTD SVG 1.1//EN" "http://www.w3.org/Graphics/SVG/1.1/DTD/svg11.dtd"><svg t="1731926587925" class="icon" viewBox="0 0 1024 1024" version="1.1" xmlns="http://www.w3.org/2000/svg" p-id="909" xmlns:xlink="http://www.w3.org/1999/xlink" width="200" height="200"><path d="M422.058667 371.2c116.992 0 238.677333-26.453333 311.808-76.714667v91.562667h67.669333v-200.533333C801.536 65.109333 606.122667 0 422.144 0 238.250667 0 42.666667 65.024 42.666667 185.6v547.072c0 120.490667 195.413333 185.6 379.392 185.6v-69.290667c-193.194667 0-311.808-67.754667-311.808-116.309333V568.32c73.130667 50.176 194.645333 76.629333 311.808 76.629333v-69.376C228.864 575.488 110.250667 507.733333 110.250667 459.093333V294.570667c73.130667 50.176 194.816 76.544 311.808 76.544z m0-301.909333C615.253333 69.290667 733.866667 137.045333 733.866667 185.6c0 48.469333-118.613333 116.309333-311.808 116.309333-193.194667 0-311.808-67.84-311.808-116.309333 0-48.554667 118.698667-116.309333 311.808-116.309333zM725.333333 409.088c-168.021333 0-255.829333 66.304-255.829333 131.669333v351.573334C469.504 957.781333 557.397333 1024 725.333333 1024c166.826667 0 254.549333-65.28 255.914667-130.218667H981.333333V540.757333c-0.085333-65.365333-87.893333-131.669333-256-131.669333z m0 69.290667c124.245333 0 188.245333 43.776 188.245334 62.378666 0 18.688-64 62.378667-188.245334 62.378667-124.16 0-188.245333-43.690667-188.245333-62.293333 0-18.773333 64-62.464 188.245333-62.464z m0 476.330666c-124.16 0-188.245333-43.690667-188.245333-62.293333v-83.968c42.922667 23.893333 105.898667 39.850667 188.245333 39.850667 82.346667 0 145.322667-15.957333 188.245334-39.850667v83.882667c0 18.688-64 62.378667-188.245334 62.378666z m0-175.786666c-124.16 0-188.245333-43.776-188.245333-62.378667v-83.968c42.922667 23.893333 105.898667 39.850667 188.245333 39.850667 82.346667 0 145.322667-15.957333 188.245334-39.850667v83.968c0 18.602667-64 62.293333-188.245334 62.293333z" fill="#4A90E2" p-id="910"></path></svg>