<?xml version="1.0" standalone="no"?><!DOCTYPE svg PUBLIC "-//W3C//DTD SVG 1.1//EN" "http://www.w3.org/Graphics/SVG/1.1/DTD/svg11.dtd"><svg t="1732984966390" class="icon" viewBox="0 0 1024 1024" version="1.1" xmlns="http://www.w3.org/2000/svg" p-id="1315" xmlns:xlink="http://www.w3.org/1999/xlink" width="200" height="200"><path d="M197.973333 839.338667a34.474667 273.066667 90 1 0 546.13333399 0 34.474667 273.066667 90 1 0-546.13333399 0Z" fill="#7dc5eb" p-id="1316"></path><path d="M740.35882701 271.598933l-0.69290701 50.469547-98.757973 0 0 71.120213-16.196267 0L624.71168 273.493333c0.2048-28.593493 13.88885299-55.374507 36.836693-72.116906a65.037653 65.037653 0 0 0-7.70048-0.597334L294.761813 200.779093c-44.100267 0-79.885653 36.051627-79.99488 80.592214l0 389.01077301a27.067733 27.067733 0 0 0 7.84384001 19.08053299 26.53184 26.53184 0 0 0 18.92010699 7.850667L400.725333 697.31328l0 16.45909299-159.19786599 1e-8C217.770667 713.772373 198.48192 694.3744 198.372693 670.37866701L198.372693 281.371307C198.536533 227.72394699 241.64352 184.32000001 294.761813 184.32l359.082667 0c47.742293 0 86.459733 39.058773 86.51434701 87.278933z m25.00949299 519.4752l-116.640427-72.3968L514.1504 718.677333c-12.485973 0-22.626987-10.185387-22.626987-22.72256L491.523413 482.839893c0-12.53717301 10.141013-22.72256 23.405227-22.72256l281.647787 0c12.485973 0 22.626987 10.185387 22.62698601 22.72256l0 213.11488c0 12.53717301-10.141013 22.72256-22.62698601 22.72256l-49.54112 0 18.336426 72.3968zM599.04 590.056107c6.37269299 0 11.946667-5.505707 11.946667-11.799894l0-23.599786c0-6.294187-5.573973-11.799893-11.946667-11.799894s-11.946667 5.505707-11.946667 11.799894l0 23.599786c0 6.294187 5.573973 11.799893 11.946667 11.799894z m119.466667 0c6.37269299 0 11.946667-5.505707 11.946666-11.799894l0-23.599786c0-6.294187-5.573973-11.799893-11.946666-11.799894s-11.946667 5.505707-11.946667 11.799894l0 23.599786c0 6.294187 5.573973 11.799893 11.946667 11.799894z m-91.589974 70.014293c2.389333 0 3.979947-0.785067 5.573974-2.358613 6.37269299-6.294187 15.930027-11.014827 26.282666-11.014827 10.35264 0 19.909973 4.72064 26.282667 11.014827 1.594027 1.570133 3.18464 2.358613 5.573973 2.358613 7.168 0 10.356053-7.867733 5.577387-13.37344-9.557333-9.44128001-23.098027-16.520533-37.434027-16.520533s-27.876693 7.079253-37.434026 16.520533c-4.77866701 4.72064-1.590613 13.37344 5.577386 13.37344zM279.156053 306.008747l279.487147-1e-8 0 41.36960001-279.483733-1e-8 0-41.36959999z m0 227.508906l114.066774 0 0 20.6848L279.156053 554.202453l0-20.6848z m0-106.502826l114.066774 0 0 27.579733L279.156053 454.59456l0-27.579733z" fill="#7dc5eb" p-id="1317"></path><path d="M47.786667 367.2064l30.72 0a3.413333 3.413333 0 0 1 3.413333 3.413333l0 6.9632a3.413333 3.413333 0 0 1-3.413333 3.413334l-30.72 0 0 31.061333a3.413333 3.413333 0 0 1-3.413334 3.413333l-6.826666 0a3.413333 3.413333 0 0 1-3.413334-3.413333l1e-8-31.061333L3.413333 380.996267a3.413333 3.413333 0 0 1-3.413333-3.413334l0-6.9632a3.413333 3.413333 0 0 1 3.413333-3.413333l30.72 0 0-31.061333a3.413333 3.413333 0 0 1 3.413334-3.413334l6.826666 0a3.413333 3.413333 0 0 1 3.413334 3.413334l0 31.061333zM188.747093 35.280213c4.13696 18.213547 9.035093 30.173867 14.6944 35.894614 5.659307 5.717333 16.923307 10.082987 33.798827 13.100373-18.01216 1.693013-29.764267 5.31456-35.25632 10.86464-5.492053 5.546667-9.90208 18.261333-13.236907 38.130347-3.147093-18.916693-7.560533-31.24224-13.233493-36.97664-5.676373-5.73440001-17.42847999-9.73824-35.259733-12.018347 18.015573-3.188053 29.771093-7.553707 35.259733-13.100373 5.48864-5.546667 9.898667-17.5104 13.233493-35.894614zM873.813333 822.272l17.066667 0a3.413333 3.413333 0 0 1 3.413333 3.413333l0 6.9632a3.413333 3.413333 0 0 1-3.41333299 3.413334l-17.06666701 0L873.813333 853.333333a3.413333 3.413333 0 0 1-3.413333 3.413334l-6.826667 0a3.413333 3.413333 0 0 1-3.413333-3.413334l0-17.271466-17.066667 0a3.413333 3.413333 0 0 1-3.413333-3.413334l0-6.9632a3.413333 3.413333 0 0 1 3.413333-3.413333l17.066667 0 0-17.271467a3.413333 3.413333 0 0 1 3.41333299-3.413333l6.82666701 0a3.413333 3.413333 0 0 1 3.413333 3.413333l0 17.271467zM969.386667 277.080747c4.119893 18.1248 8.994133 30.030507 14.626133 35.720533 5.632 5.686613 16.848213 10.0352 33.645227 13.03552-17.926827 1.686187-29.627733 5.290667-35.09247999 10.810027-5.46816 5.522773-9.86112 18.169173-13.17888001 37.946026-3.13344-18.824533-7.5264-31.092053-13.175467-36.795733-5.649067-5.707093-17.34656-9.693867-35.095893-11.96032 17.933653-3.1744 29.63456-7.519573 35.095893-13.038933 5.464747-5.515947 9.857707-17.421653 13.175467-35.71712zM150.186667 552.87808c2.471253 10.87488 5.39648 18.018987 8.77568 21.43232 3.3792 3.41333301 10.110293 6.02112 20.186453 7.82336-10.755413 1.010347-17.773227 3.1744-21.05344 6.485333-3.280213 3.310933-5.91872 10.902187-7.908693 22.766934-1.877333-11.29813299-4.51584-18.653867-7.90528-22.07744-3.38944-3.423573-10.410667-5.81632-21.060267-7.174827 10.76224-1.90463999 17.783467-4.512427 21.060267-7.82336 3.2768-3.31093301 5.915307-10.45504 7.90528-21.43232z" fill="#7dc5eb" p-id="1318"></path></svg>