<?xml version="1.0" standalone="no"?><!DOCTYPE svg PUBLIC "-//W3C//DTD SVG 1.1//EN" "http://www.w3.org/Graphics/SVG/1.1/DTD/svg11.dtd"><svg t="1731987723289" class="icon" viewBox="0 0 1024 1024" version="1.1" xmlns="http://www.w3.org/2000/svg" p-id="1061" xmlns:xlink="http://www.w3.org/1999/xlink" width="200" height="200"><path d="M444.8 595.2H313.6C192 595.2 96 694.4 96 816v12.8c0 64 96 64 217.6 64h131.2c118.4 0 217.6 0 217.6-64v-12.8c0-118.4-99.2-220.8-217.6-220.8z m-70.4-16c96 0 172.8-80 172.8-176s-76.8-176-172.8-176c-96 0-172.8 80-172.8 176-3.2 99.2 76.8 176 172.8 176z" fill="#B5EFF3" p-id="1062"></path><path d="M675.2 553.6h-160c-150.4 0-268.8 118.4-268.8 265.6v16c0 76.8 118.4 76.8 268.8 76.8h160c144 0 268.8 0 268.8-76.8v-16c3.2-147.2-118.4-265.6-268.8-265.6z m-86.4-19.2c118.4 0 214.4-96 214.4-211.2 0-115.2-96-211.2-214.4-211.2s-214.4 96-214.4 211.2c0 115.2 96 211.2 214.4 211.2z" fill="#009EA9" p-id="1063"></path></svg>