<?xml version="1.0" standalone="no"?><!DOCTYPE svg PUBLIC "-//W3C//DTD SVG 1.1//EN" "http://www.w3.org/Graphics/SVG/1.1/DTD/svg11.dtd"><svg t="1731988444050" class="icon" viewBox="0 0 1024 1024" version="1.1" xmlns="http://www.w3.org/2000/svg" p-id="1156" xmlns:xlink="http://www.w3.org/1999/xlink" width="200" height="200"><path d="M507.297959 862.040816c-52.244898 0-102.922449-9.404082-151.510204-27.689796l-116.506122 25.6c-24.032653 5.22449-46.497959 0-60.604082-14.628571-14.628571-14.628571-19.853061-36.571429-14.628571-60.604082l17.240816-77.844898c-43.363265-57.469388-66.35102-122.77551-66.35102-190.693877C114.938776 320.783673 291.004082 161.959184 507.297959 161.959184c107.62449 0 208.457143 36.04898 283.689796 101.877551C867.265306 330.710204 909.061224 420.04898 909.061224 516.179592c0 190.693878-180.244898 345.861224-401.763265 345.861224z" fill="#7BD4EF" p-id="1157"></path><path d="M512 581.485714c-38.138776 0-69.485714-31.346939-69.485714-69.485714s31.346939-69.485714 69.485714-69.485714 69.485714 31.346939 69.485714 69.485714-31.346939 69.485714-69.485714 69.485714zM710.530612 581.485714c-38.138776 0-69.485714-31.346939-69.485714-69.485714s31.346939-69.485714 69.485714-69.485714 69.485714 31.346939 69.485715 69.485714-31.346939 69.485714-69.485715 69.485714zM313.469388 581.485714c-38.138776 0-69.485714-31.346939-69.485715-69.485714s31.346939-69.485714 69.485715-69.485714 69.485714 31.346939 69.485714 69.485714-31.346939 69.485714-69.485714 69.485714z" fill="#278DCA" p-id="1158"></path></svg>